<mxfile host="65bd71144e">
    <diagram id="czvxAb2iKpPtE8EkLGl7" name="Seite-1">
        <mxGraphModel dx="729" dy="559" grid="1" gridSize="10" guides="1" tooltips="1" connect="1" arrows="1" fold="1" page="1" pageScale="1" pageWidth="1169" pageHeight="827" math="0" shadow="0">
            <root>
                <mxCell id="0"/>
                <mxCell id="1" parent="0"/>
                <mxCell id="L7OUzsxzNEVT8pOXIUQ5-13" value="&#10;Software Product Quality" style="verticalAlign=top;align=center;overflow=fill;fontSize=12;fontFamily=Helvetica;fontStyle=1" parent="1" vertex="1">
                    <mxGeometry x="440" y="40" width="160" height="50" as="geometry"/>
                </mxCell>
                <mxCell id="9X4l0IQlaEuJvsT15UHs-3" value="&#10;Functional&#10;Suitability&#10; " style="swimlane;fontStyle=1;childLayout=stackLayout;horizontal=1;startSize=30;horizontalStack=0;resizeParent=1;resizeParentMax=0;resizeLast=0;collapsible=1;marginBottom=0;fillColor=default;html=0;" parent="1" vertex="1">
                    <mxGeometry x="40" y="160" width="110" height="210" as="geometry">
                        <mxRectangle x="40" y="160" width="100" height="70" as="alternateBounds"/>
                    </mxGeometry>
                </mxCell>
                <mxCell id="9X4l0IQlaEuJvsT15UHs-4" value="Functional&#10;    Completeness" style="text;strokeColor=none;fillColor=none;align=left;verticalAlign=middle;spacingLeft=4;spacingRight=4;overflow=hidden;points=[[0,0.5],[1,0.5]];portConstraint=eastwest;rotatable=0;html=0;fontStyle=0" parent="9X4l0IQlaEuJvsT15UHs-3" vertex="1">
                    <mxGeometry y="30" width="110" height="30" as="geometry"/>
                </mxCell>
                <mxCell id="9X4l0IQlaEuJvsT15UHs-5" value="Functional&#10;    Correctness" style="text;strokeColor=none;fillColor=none;align=left;verticalAlign=middle;spacingLeft=4;spacingRight=4;overflow=hidden;points=[[0,0.5],[1,0.5]];portConstraint=eastwest;rotatable=0;html=0;" parent="9X4l0IQlaEuJvsT15UHs-3" vertex="1">
                    <mxGeometry y="60" width="110" height="30" as="geometry"/>
                </mxCell>
                <mxCell id="9X4l0IQlaEuJvsT15UHs-6" value="Functional&#10;    Appropriateness" style="text;strokeColor=none;fillColor=none;align=left;verticalAlign=middle;spacingLeft=4;spacingRight=4;overflow=hidden;points=[[0,0.5],[1,0.5]];portConstraint=eastwest;rotatable=0;html=0;" parent="9X4l0IQlaEuJvsT15UHs-3" vertex="1">
                    <mxGeometry y="90" width="110" height="30" as="geometry"/>
                </mxCell>
                <mxCell id="9X4l0IQlaEuJvsT15UHs-10" style="text;strokeColor=none;fillColor=none;align=left;verticalAlign=middle;spacingLeft=4;spacingRight=4;overflow=hidden;points=[[0,0.5],[1,0.5]];portConstraint=eastwest;rotatable=0;html=0;" parent="9X4l0IQlaEuJvsT15UHs-3" vertex="1">
                    <mxGeometry y="120" width="110" height="30" as="geometry"/>
                </mxCell>
                <mxCell id="9X4l0IQlaEuJvsT15UHs-9" style="text;strokeColor=none;fillColor=none;align=left;verticalAlign=middle;spacingLeft=4;spacingRight=4;overflow=hidden;points=[[0,0.5],[1,0.5]];portConstraint=eastwest;rotatable=0;html=0;" parent="9X4l0IQlaEuJvsT15UHs-3" vertex="1">
                    <mxGeometry y="150" width="110" height="30" as="geometry"/>
                </mxCell>
                <mxCell id="9X4l0IQlaEuJvsT15UHs-8" style="text;strokeColor=none;fillColor=none;align=left;verticalAlign=middle;spacingLeft=4;spacingRight=4;overflow=hidden;points=[[0,0.5],[1,0.5]];portConstraint=eastwest;rotatable=0;html=0;" parent="9X4l0IQlaEuJvsT15UHs-3" vertex="1">
                    <mxGeometry y="180" width="110" height="30" as="geometry"/>
                </mxCell>
                <mxCell id="9X4l0IQlaEuJvsT15UHs-11" value="&#10;Performance&#10;Efficiency&#10; " style="swimlane;fontStyle=1;childLayout=stackLayout;horizontal=1;startSize=30;horizontalStack=0;resizeParent=1;resizeParentMax=0;resizeLast=0;collapsible=1;marginBottom=0;fillColor=default;html=0;" parent="1" vertex="1">
                    <mxGeometry x="160" y="160" width="110" height="210" as="geometry">
                        <mxRectangle x="40" y="160" width="100" height="70" as="alternateBounds"/>
                    </mxGeometry>
                </mxCell>
                <mxCell id="9X4l0IQlaEuJvsT15UHs-12" value="Time&#10;    Behavior" style="text;strokeColor=none;fillColor=none;align=left;verticalAlign=middle;spacingLeft=4;spacingRight=4;overflow=hidden;points=[[0,0.5],[1,0.5]];portConstraint=eastwest;rotatable=0;html=0;fontStyle=0" parent="9X4l0IQlaEuJvsT15UHs-11" vertex="1">
                    <mxGeometry y="30" width="110" height="30" as="geometry"/>
                </mxCell>
                <mxCell id="9X4l0IQlaEuJvsT15UHs-13" value="Resource&#10;    Utilisation" style="text;strokeColor=none;fillColor=none;align=left;verticalAlign=middle;spacingLeft=4;spacingRight=4;overflow=hidden;points=[[0,0.5],[1,0.5]];portConstraint=eastwest;rotatable=0;html=0;" parent="9X4l0IQlaEuJvsT15UHs-11" vertex="1">
                    <mxGeometry y="60" width="110" height="30" as="geometry"/>
                </mxCell>
                <mxCell id="9X4l0IQlaEuJvsT15UHs-14" value="Capacity " style="text;strokeColor=none;fillColor=none;align=left;verticalAlign=middle;spacingLeft=4;spacingRight=4;overflow=hidden;points=[[0,0.5],[1,0.5]];portConstraint=eastwest;rotatable=0;html=0;" parent="9X4l0IQlaEuJvsT15UHs-11" vertex="1">
                    <mxGeometry y="90" width="110" height="30" as="geometry"/>
                </mxCell>
                <mxCell id="9X4l0IQlaEuJvsT15UHs-15" style="text;strokeColor=none;fillColor=none;align=left;verticalAlign=middle;spacingLeft=4;spacingRight=4;overflow=hidden;points=[[0,0.5],[1,0.5]];portConstraint=eastwest;rotatable=0;html=0;" parent="9X4l0IQlaEuJvsT15UHs-11" vertex="1">
                    <mxGeometry y="120" width="110" height="30" as="geometry"/>
                </mxCell>
                <mxCell id="9X4l0IQlaEuJvsT15UHs-16" style="text;strokeColor=none;fillColor=none;align=left;verticalAlign=middle;spacingLeft=4;spacingRight=4;overflow=hidden;points=[[0,0.5],[1,0.5]];portConstraint=eastwest;rotatable=0;html=0;" parent="9X4l0IQlaEuJvsT15UHs-11" vertex="1">
                    <mxGeometry y="150" width="110" height="30" as="geometry"/>
                </mxCell>
                <mxCell id="9X4l0IQlaEuJvsT15UHs-17" style="text;strokeColor=none;fillColor=none;align=left;verticalAlign=middle;spacingLeft=4;spacingRight=4;overflow=hidden;points=[[0,0.5],[1,0.5]];portConstraint=eastwest;rotatable=0;html=0;" parent="9X4l0IQlaEuJvsT15UHs-11" vertex="1">
                    <mxGeometry y="180" width="110" height="30" as="geometry"/>
                </mxCell>
                <mxCell id="9X4l0IQlaEuJvsT15UHs-18" value="Compatibility" style="swimlane;fontStyle=1;childLayout=stackLayout;horizontal=1;startSize=30;horizontalStack=0;resizeParent=1;resizeParentMax=0;resizeLast=0;collapsible=1;marginBottom=0;fillColor=default;html=0;" parent="1" vertex="1">
                    <mxGeometry x="280" y="160" width="110" height="210" as="geometry">
                        <mxRectangle x="40" y="160" width="100" height="70" as="alternateBounds"/>
                    </mxGeometry>
                </mxCell>
                <mxCell id="9X4l0IQlaEuJvsT15UHs-19" value="Co-existence" style="text;strokeColor=none;fillColor=none;align=left;verticalAlign=middle;spacingLeft=4;spacingRight=4;overflow=hidden;points=[[0,0.5],[1,0.5]];portConstraint=eastwest;rotatable=0;html=0;fontStyle=0" parent="9X4l0IQlaEuJvsT15UHs-18" vertex="1">
                    <mxGeometry y="30" width="110" height="30" as="geometry"/>
                </mxCell>
                <mxCell id="9X4l0IQlaEuJvsT15UHs-20" value="Interoperability" style="text;strokeColor=none;fillColor=none;align=left;verticalAlign=middle;spacingLeft=4;spacingRight=4;overflow=hidden;points=[[0,0.5],[1,0.5]];portConstraint=eastwest;rotatable=0;html=0;" parent="9X4l0IQlaEuJvsT15UHs-18" vertex="1">
                    <mxGeometry y="60" width="110" height="30" as="geometry"/>
                </mxCell>
                <mxCell id="9X4l0IQlaEuJvsT15UHs-22" style="text;strokeColor=none;fillColor=none;align=left;verticalAlign=middle;spacingLeft=4;spacingRight=4;overflow=hidden;points=[[0,0.5],[1,0.5]];portConstraint=eastwest;rotatable=0;html=0;" parent="9X4l0IQlaEuJvsT15UHs-18" vertex="1">
                    <mxGeometry y="90" width="110" height="30" as="geometry"/>
                </mxCell>
                <mxCell id="9X4l0IQlaEuJvsT15UHs-23" style="text;strokeColor=none;fillColor=none;align=left;verticalAlign=middle;spacingLeft=4;spacingRight=4;overflow=hidden;points=[[0,0.5],[1,0.5]];portConstraint=eastwest;rotatable=0;html=0;" parent="9X4l0IQlaEuJvsT15UHs-18" vertex="1">
                    <mxGeometry y="120" width="110" height="30" as="geometry"/>
                </mxCell>
                <mxCell id="9X4l0IQlaEuJvsT15UHs-24" style="text;strokeColor=none;fillColor=none;align=left;verticalAlign=middle;spacingLeft=4;spacingRight=4;overflow=hidden;points=[[0,0.5],[1,0.5]];portConstraint=eastwest;rotatable=0;html=0;" parent="9X4l0IQlaEuJvsT15UHs-18" vertex="1">
                    <mxGeometry y="150" width="110" height="30" as="geometry"/>
                </mxCell>
                <mxCell id="9X4l0IQlaEuJvsT15UHs-25" style="text;strokeColor=none;fillColor=none;align=left;verticalAlign=middle;spacingLeft=4;spacingRight=4;overflow=hidden;points=[[0,0.5],[1,0.5]];portConstraint=eastwest;rotatable=0;html=0;" parent="9X4l0IQlaEuJvsT15UHs-18" vertex="1">
                    <mxGeometry y="180" width="110" height="30" as="geometry"/>
                </mxCell>
                <mxCell id="9X4l0IQlaEuJvsT15UHs-27" value="Usability" style="swimlane;fontStyle=1;childLayout=stackLayout;horizontal=1;startSize=30;horizontalStack=0;resizeParent=1;resizeParentMax=0;resizeLast=0;collapsible=1;marginBottom=0;fillColor=default;html=0;" parent="1" vertex="1">
                    <mxGeometry x="400" y="160" width="110" height="210" as="geometry">
                        <mxRectangle x="40" y="160" width="100" height="70" as="alternateBounds"/>
                    </mxGeometry>
                </mxCell>
                <mxCell id="9X4l0IQlaEuJvsT15UHs-28" value=" Appropriateness&#10;    Recognizability" style="text;strokeColor=none;fillColor=none;align=left;verticalAlign=middle;spacingLeft=4;spacingRight=4;overflow=hidden;points=[[0,0.5],[1,0.5]];portConstraint=eastwest;rotatable=0;html=0;fontStyle=0" parent="9X4l0IQlaEuJvsT15UHs-27" vertex="1">
                    <mxGeometry y="30" width="110" height="30" as="geometry"/>
                </mxCell>
                <mxCell id="9X4l0IQlaEuJvsT15UHs-29" value="Availability" style="text;strokeColor=none;fillColor=none;align=left;verticalAlign=middle;spacingLeft=4;spacingRight=4;overflow=hidden;points=[[0,0.5],[1,0.5]];portConstraint=eastwest;rotatable=0;html=0;" parent="9X4l0IQlaEuJvsT15UHs-27" vertex="1">
                    <mxGeometry y="60" width="110" height="30" as="geometry"/>
                </mxCell>
                <mxCell id="9X4l0IQlaEuJvsT15UHs-30" value="User Interface&#10;    Aesthetics" style="text;strokeColor=none;fillColor=none;align=left;verticalAlign=middle;spacingLeft=4;spacingRight=4;overflow=hidden;points=[[0,0.5],[1,0.5]];portConstraint=eastwest;rotatable=0;html=0;" parent="9X4l0IQlaEuJvsT15UHs-27" vertex="1">
                    <mxGeometry y="90" width="110" height="30" as="geometry"/>
                </mxCell>
                <mxCell id="9X4l0IQlaEuJvsT15UHs-31" value="Learnability" style="text;strokeColor=none;fillColor=none;align=left;verticalAlign=middle;spacingLeft=4;spacingRight=4;overflow=hidden;points=[[0,0.5],[1,0.5]];portConstraint=eastwest;rotatable=0;html=0;" parent="9X4l0IQlaEuJvsT15UHs-27" vertex="1">
                    <mxGeometry y="120" width="110" height="30" as="geometry"/>
                </mxCell>
                <mxCell id="9X4l0IQlaEuJvsT15UHs-32" value="Operability" style="text;strokeColor=none;fillColor=none;align=left;verticalAlign=middle;spacingLeft=4;spacingRight=4;overflow=hidden;points=[[0,0.5],[1,0.5]];portConstraint=eastwest;rotatable=0;html=0;" parent="9X4l0IQlaEuJvsT15UHs-27" vertex="1">
                    <mxGeometry y="150" width="110" height="30" as="geometry"/>
                </mxCell>
                <mxCell id="9X4l0IQlaEuJvsT15UHs-33" value="Accessibility" style="text;strokeColor=none;fillColor=none;align=left;verticalAlign=middle;spacingLeft=4;spacingRight=4;overflow=hidden;points=[[0,0.5],[1,0.5]];portConstraint=eastwest;rotatable=0;html=0;" parent="9X4l0IQlaEuJvsT15UHs-27" vertex="1">
                    <mxGeometry y="180" width="110" height="30" as="geometry"/>
                </mxCell>
                <mxCell id="9X4l0IQlaEuJvsT15UHs-35" value="" style="rounded=1;fontSize=11;fillColor=#FF9999;strokeColor=none;fontColor=#FFFFFF;verticalAlign=top;rotation=-15;arcSize=30;" parent="1" vertex="1">
                    <mxGeometry x="630" y="70" width="50" height="20" as="geometry"/>
                </mxCell>
                <mxCell id="9X4l0IQlaEuJvsT15UHs-36" value="in this box, you find some modern, hot topics to consider" style="text;strokeColor=none;fillColor=none;align=center;verticalAlign=middle;rounded=0;fontColor=#FF9999;" parent="1" vertex="1">
                    <mxGeometry x="660" y="75" width="330" height="30" as="geometry"/>
                </mxCell>
                <mxCell id="9X4l0IQlaEuJvsT15UHs-37" value="Reliability" style="swimlane;fontStyle=1;childLayout=stackLayout;horizontal=1;startSize=30;horizontalStack=0;resizeParent=1;resizeParentMax=0;resizeLast=0;collapsible=1;marginBottom=0;fillColor=default;html=0;" parent="1" vertex="1">
                    <mxGeometry x="520" y="160" width="110" height="210" as="geometry">
                        <mxRectangle x="40" y="160" width="100" height="70" as="alternateBounds"/>
                    </mxGeometry>
                </mxCell>
                <mxCell id="9X4l0IQlaEuJvsT15UHs-38" value="Maturity" style="text;strokeColor=none;fillColor=none;align=left;verticalAlign=middle;spacingLeft=4;spacingRight=4;overflow=hidden;points=[[0,0.5],[1,0.5]];portConstraint=eastwest;rotatable=0;html=0;fontStyle=0" parent="9X4l0IQlaEuJvsT15UHs-37" vertex="1">
                    <mxGeometry y="30" width="110" height="30" as="geometry"/>
                </mxCell>
                <mxCell id="9X4l0IQlaEuJvsT15UHs-39" value="Integrity" style="text;strokeColor=none;fillColor=none;align=left;verticalAlign=middle;spacingLeft=4;spacingRight=4;overflow=hidden;points=[[0,0.5],[1,0.5]];portConstraint=eastwest;rotatable=0;html=0;" parent="9X4l0IQlaEuJvsT15UHs-37" vertex="1">
                    <mxGeometry y="60" width="110" height="30" as="geometry"/>
                </mxCell>
                <mxCell id="9X4l0IQlaEuJvsT15UHs-40" value="Non-repudiation" style="text;strokeColor=none;fillColor=none;align=left;verticalAlign=middle;spacingLeft=4;spacingRight=4;overflow=hidden;points=[[0,0.5],[1,0.5]];portConstraint=eastwest;rotatable=0;html=0;" parent="9X4l0IQlaEuJvsT15UHs-37" vertex="1">
                    <mxGeometry y="90" width="110" height="30" as="geometry"/>
                </mxCell>
                <mxCell id="9X4l0IQlaEuJvsT15UHs-41" value="Authenticity" style="text;strokeColor=none;fillColor=none;align=left;verticalAlign=middle;spacingLeft=4;spacingRight=4;overflow=hidden;points=[[0,0.5],[1,0.5]];portConstraint=eastwest;rotatable=0;html=0;" parent="9X4l0IQlaEuJvsT15UHs-37" vertex="1">
                    <mxGeometry y="120" width="110" height="30" as="geometry"/>
                </mxCell>
                <mxCell id="9X4l0IQlaEuJvsT15UHs-45" value="Accountability" style="text;strokeColor=none;fillColor=none;align=left;verticalAlign=middle;spacingLeft=4;spacingRight=4;overflow=hidden;points=[[0,0.5],[1,0.5]];portConstraint=eastwest;rotatable=0;html=0;" parent="9X4l0IQlaEuJvsT15UHs-37" vertex="1">
                    <mxGeometry y="150" width="110" height="30" as="geometry"/>
                </mxCell>
                <mxCell id="9X4l0IQlaEuJvsT15UHs-44" style="text;strokeColor=none;fillColor=none;align=left;verticalAlign=middle;spacingLeft=4;spacingRight=4;overflow=hidden;points=[[0,0.5],[1,0.5]];portConstraint=eastwest;rotatable=0;html=0;" parent="9X4l0IQlaEuJvsT15UHs-37" vertex="1">
                    <mxGeometry y="180" width="110" height="30" as="geometry"/>
                </mxCell>
                <mxCell id="9X4l0IQlaEuJvsT15UHs-46" value="Security" style="swimlane;fontStyle=1;childLayout=stackLayout;horizontal=1;startSize=30;horizontalStack=0;resizeParent=1;resizeParentMax=0;resizeLast=0;collapsible=1;marginBottom=0;fillColor=default;html=0;" parent="1" vertex="1">
                    <mxGeometry x="640" y="160" width="110" height="210" as="geometry">
                        <mxRectangle x="40" y="160" width="100" height="70" as="alternateBounds"/>
                    </mxGeometry>
                </mxCell>
                <mxCell id="9X4l0IQlaEuJvsT15UHs-47" value="Confidentiality" style="text;strokeColor=none;fillColor=none;align=left;verticalAlign=middle;spacingLeft=4;spacingRight=4;overflow=hidden;points=[[0,0.5],[1,0.5]];portConstraint=eastwest;rotatable=0;html=0;fontStyle=0" parent="9X4l0IQlaEuJvsT15UHs-46" vertex="1">
                    <mxGeometry y="30" width="110" height="30" as="geometry"/>
                </mxCell>
                <mxCell id="9X4l0IQlaEuJvsT15UHs-48" value="Availability" style="text;strokeColor=none;fillColor=none;align=left;verticalAlign=middle;spacingLeft=4;spacingRight=4;overflow=hidden;points=[[0,0.5],[1,0.5]];portConstraint=eastwest;rotatable=0;html=0;" parent="9X4l0IQlaEuJvsT15UHs-46" vertex="1">
                    <mxGeometry y="60" width="110" height="30" as="geometry"/>
                </mxCell>
                <mxCell id="9X4l0IQlaEuJvsT15UHs-49" value="Fault Tolerance" style="text;strokeColor=none;fillColor=none;align=left;verticalAlign=middle;spacingLeft=4;spacingRight=4;overflow=hidden;points=[[0,0.5],[1,0.5]];portConstraint=eastwest;rotatable=0;html=0;" parent="9X4l0IQlaEuJvsT15UHs-46" vertex="1">
                    <mxGeometry y="90" width="110" height="30" as="geometry"/>
                </mxCell>
                <mxCell id="9X4l0IQlaEuJvsT15UHs-50" value="Recoverability" style="text;strokeColor=none;fillColor=none;align=left;verticalAlign=middle;spacingLeft=4;spacingRight=4;overflow=hidden;points=[[0,0.5],[1,0.5]];portConstraint=eastwest;rotatable=0;html=0;" parent="9X4l0IQlaEuJvsT15UHs-46" vertex="1">
                    <mxGeometry y="120" width="110" height="30" as="geometry"/>
                </mxCell>
                <mxCell id="9X4l0IQlaEuJvsT15UHs-51" style="text;strokeColor=none;fillColor=none;align=left;verticalAlign=middle;spacingLeft=4;spacingRight=4;overflow=hidden;points=[[0,0.5],[1,0.5]];portConstraint=eastwest;rotatable=0;html=0;" parent="9X4l0IQlaEuJvsT15UHs-46" vertex="1">
                    <mxGeometry y="150" width="110" height="30" as="geometry"/>
                </mxCell>
                <mxCell id="9X4l0IQlaEuJvsT15UHs-52" style="text;strokeColor=none;fillColor=none;align=left;verticalAlign=middle;spacingLeft=4;spacingRight=4;overflow=hidden;points=[[0,0.5],[1,0.5]];portConstraint=eastwest;rotatable=0;html=0;" parent="9X4l0IQlaEuJvsT15UHs-46" vertex="1">
                    <mxGeometry y="180" width="110" height="30" as="geometry"/>
                </mxCell>
                <mxCell id="gGhPqQ-JlkbUOsqNvGfJ-29" value="Disabled people&#10;&#10;  Genders" style="rounded=1;fontSize=11;fillColor=#FF9999;strokeColor=none;fontColor=#FFFFFF;verticalAlign=top;rotation=-15;arcSize=30;align=center;" parent="1" vertex="1">
                    <mxGeometry x="410" y="364" width="100" height="50" as="geometry"/>
                </mxCell>
                <mxCell id="gGhPqQ-JlkbUOsqNvGfJ-30" value="Zero-downtime&#10;systems" style="rounded=1;fontSize=11;fillColor=#FF9999;strokeColor=none;fontColor=#FFFFFF;verticalAlign=middle;rotation=-15;arcSize=30;align=center;" parent="1" vertex="1">
                    <mxGeometry x="530" y="364" width="100" height="50" as="geometry"/>
                </mxCell>
                <mxCell id="9X4l0IQlaEuJvsT15UHs-53" value="Maintainability" style="swimlane;fontStyle=1;childLayout=stackLayout;horizontal=1;startSize=30;horizontalStack=0;resizeParent=1;resizeParentMax=0;resizeLast=0;collapsible=1;marginBottom=0;fillColor=default;html=0;" parent="1" vertex="1">
                    <mxGeometry x="760" y="160" width="110" height="210" as="geometry">
                        <mxRectangle x="40" y="160" width="100" height="70" as="alternateBounds"/>
                    </mxGeometry>
                </mxCell>
                <mxCell id="9X4l0IQlaEuJvsT15UHs-54" value="Modularity" style="text;strokeColor=none;fillColor=none;align=left;verticalAlign=middle;spacingLeft=4;spacingRight=4;overflow=hidden;points=[[0,0.5],[1,0.5]];portConstraint=eastwest;rotatable=0;html=0;fontStyle=0" parent="9X4l0IQlaEuJvsT15UHs-53" vertex="1">
                    <mxGeometry y="30" width="110" height="30" as="geometry"/>
                </mxCell>
                <mxCell id="9X4l0IQlaEuJvsT15UHs-55" value="Reusability" style="text;strokeColor=none;fillColor=none;align=left;verticalAlign=middle;spacingLeft=4;spacingRight=4;overflow=hidden;points=[[0,0.5],[1,0.5]];portConstraint=eastwest;rotatable=0;html=0;" parent="9X4l0IQlaEuJvsT15UHs-53" vertex="1">
                    <mxGeometry y="60" width="110" height="30" as="geometry"/>
                </mxCell>
                <mxCell id="9X4l0IQlaEuJvsT15UHs-56" value="Analysability" style="text;strokeColor=none;fillColor=none;align=left;verticalAlign=middle;spacingLeft=4;spacingRight=4;overflow=hidden;points=[[0,0.5],[1,0.5]];portConstraint=eastwest;rotatable=0;html=0;" parent="9X4l0IQlaEuJvsT15UHs-53" vertex="1">
                    <mxGeometry y="90" width="110" height="30" as="geometry"/>
                </mxCell>
                <mxCell id="9X4l0IQlaEuJvsT15UHs-57" value="Modifiability" style="text;strokeColor=none;fillColor=none;align=left;verticalAlign=middle;spacingLeft=4;spacingRight=4;overflow=hidden;points=[[0,0.5],[1,0.5]];portConstraint=eastwest;rotatable=0;html=0;" parent="9X4l0IQlaEuJvsT15UHs-53" vertex="1">
                    <mxGeometry y="120" width="110" height="30" as="geometry"/>
                </mxCell>
                <mxCell id="9X4l0IQlaEuJvsT15UHs-58" value="Testability" style="text;strokeColor=none;fillColor=none;align=left;verticalAlign=middle;spacingLeft=4;spacingRight=4;overflow=hidden;points=[[0,0.5],[1,0.5]];portConstraint=eastwest;rotatable=0;html=0;" parent="9X4l0IQlaEuJvsT15UHs-53" vertex="1">
                    <mxGeometry y="150" width="110" height="30" as="geometry"/>
                </mxCell>
                <mxCell id="9X4l0IQlaEuJvsT15UHs-59" style="text;strokeColor=none;fillColor=none;align=left;verticalAlign=middle;spacingLeft=4;spacingRight=4;overflow=hidden;points=[[0,0.5],[1,0.5]];portConstraint=eastwest;rotatable=0;html=0;" parent="9X4l0IQlaEuJvsT15UHs-53" vertex="1">
                    <mxGeometry y="180" width="110" height="30" as="geometry"/>
                </mxCell>
                <mxCell id="gGhPqQ-JlkbUOsqNvGfJ-31" value="Observability" style="rounded=1;fontSize=11;fillColor=#FF9999;strokeColor=none;fontColor=#FFFFFF;verticalAlign=middle;rotation=-15;arcSize=30;" parent="1" vertex="1">
                    <mxGeometry x="765" y="364" width="100" height="50" as="geometry"/>
                </mxCell>
                <mxCell id="9X4l0IQlaEuJvsT15UHs-60" value="Portability" style="swimlane;fontStyle=1;childLayout=stackLayout;horizontal=1;startSize=30;horizontalStack=0;resizeParent=1;resizeParentMax=0;resizeLast=0;collapsible=1;marginBottom=0;fillColor=default;html=0;" parent="1" vertex="1">
                    <mxGeometry x="880" y="160" width="110" height="210" as="geometry">
                        <mxRectangle x="40" y="160" width="100" height="70" as="alternateBounds"/>
                    </mxGeometry>
                </mxCell>
                <mxCell id="9X4l0IQlaEuJvsT15UHs-61" value="Adaptability" style="text;strokeColor=none;fillColor=none;align=left;verticalAlign=middle;spacingLeft=4;spacingRight=4;overflow=hidden;points=[[0,0.5],[1,0.5]];portConstraint=eastwest;rotatable=0;html=0;fontStyle=0" parent="9X4l0IQlaEuJvsT15UHs-60" vertex="1">
                    <mxGeometry y="30" width="110" height="30" as="geometry"/>
                </mxCell>
                <mxCell id="9X4l0IQlaEuJvsT15UHs-62" value="Installability" style="text;strokeColor=none;fillColor=none;align=left;verticalAlign=middle;spacingLeft=4;spacingRight=4;overflow=hidden;points=[[0,0.5],[1,0.5]];portConstraint=eastwest;rotatable=0;html=0;" parent="9X4l0IQlaEuJvsT15UHs-60" vertex="1">
                    <mxGeometry y="60" width="110" height="30" as="geometry"/>
                </mxCell>
                <mxCell id="9X4l0IQlaEuJvsT15UHs-63" value="Replaceability" style="text;strokeColor=none;fillColor=none;align=left;verticalAlign=middle;spacingLeft=4;spacingRight=4;overflow=hidden;points=[[0,0.5],[1,0.5]];portConstraint=eastwest;rotatable=0;html=0;" parent="9X4l0IQlaEuJvsT15UHs-60" vertex="1">
                    <mxGeometry y="90" width="110" height="30" as="geometry"/>
                </mxCell>
                <mxCell id="9X4l0IQlaEuJvsT15UHs-66" style="text;strokeColor=none;fillColor=none;align=left;verticalAlign=middle;spacingLeft=4;spacingRight=4;overflow=hidden;points=[[0,0.5],[1,0.5]];portConstraint=eastwest;rotatable=0;html=0;" parent="9X4l0IQlaEuJvsT15UHs-60" vertex="1">
                    <mxGeometry y="120" width="110" height="30" as="geometry"/>
                </mxCell>
                <mxCell id="9X4l0IQlaEuJvsT15UHs-67" style="text;strokeColor=none;fillColor=none;align=left;verticalAlign=middle;spacingLeft=4;spacingRight=4;overflow=hidden;points=[[0,0.5],[1,0.5]];portConstraint=eastwest;rotatable=0;html=0;" parent="9X4l0IQlaEuJvsT15UHs-60" vertex="1">
                    <mxGeometry y="150" width="110" height="30" as="geometry"/>
                </mxCell>
                <mxCell id="9X4l0IQlaEuJvsT15UHs-68" style="text;strokeColor=none;fillColor=none;align=left;verticalAlign=middle;spacingLeft=4;spacingRight=4;overflow=hidden;points=[[0,0.5],[1,0.5]];portConstraint=eastwest;rotatable=0;html=0;" parent="9X4l0IQlaEuJvsT15UHs-60" vertex="1">
                    <mxGeometry y="180" width="110" height="30" as="geometry"/>
                </mxCell>
                <mxCell id="9X4l0IQlaEuJvsT15UHs-69" value="" style="endArrow=block;endSize=16;endFill=0;html=1;rounded=0;fontColor=#FF9999;exitX=0.5;exitY=0;exitDx=0;exitDy=0;entryX=0.5;entryY=1;entryDx=0;entryDy=0;edgeStyle=orthogonalEdgeStyle;" parent="1" source="9X4l0IQlaEuJvsT15UHs-37" target="L7OUzsxzNEVT8pOXIUQ5-13" edge="1">
                    <mxGeometry width="160" relative="1" as="geometry">
                        <mxPoint x="540" y="340" as="sourcePoint"/>
                        <mxPoint x="700" y="340" as="targetPoint"/>
                    </mxGeometry>
                </mxCell>
                <mxCell id="9X4l0IQlaEuJvsT15UHs-70" value="" style="endArrow=block;endSize=16;endFill=0;html=1;rounded=0;fontColor=#FF9999;exitX=0.5;exitY=0;exitDx=0;exitDy=0;edgeStyle=orthogonalEdgeStyle;" parent="1" source="9X4l0IQlaEuJvsT15UHs-3" edge="1">
                    <mxGeometry width="160" relative="1" as="geometry">
                        <mxPoint x="170" y="130" as="sourcePoint"/>
                        <mxPoint x="520" y="90" as="targetPoint"/>
                    </mxGeometry>
                </mxCell>
                <mxCell id="9X4l0IQlaEuJvsT15UHs-71" value="" style="endArrow=block;endSize=16;endFill=0;html=1;rounded=0;fontColor=#FF9999;exitX=0.5;exitY=0;exitDx=0;exitDy=0;entryX=0.5;entryY=1;entryDx=0;entryDy=0;edgeStyle=orthogonalEdgeStyle;" parent="1" source="9X4l0IQlaEuJvsT15UHs-11" target="L7OUzsxzNEVT8pOXIUQ5-13" edge="1">
                    <mxGeometry width="160" relative="1" as="geometry">
                        <mxPoint x="595" y="180" as="sourcePoint"/>
                        <mxPoint x="540" y="110" as="targetPoint"/>
                    </mxGeometry>
                </mxCell>
                <mxCell id="9X4l0IQlaEuJvsT15UHs-72" value="" style="endArrow=block;endSize=16;endFill=0;html=1;rounded=0;fontColor=#FF9999;exitX=0.5;exitY=0;exitDx=0;exitDy=0;edgeStyle=orthogonalEdgeStyle;" parent="1" source="9X4l0IQlaEuJvsT15UHs-18" edge="1">
                    <mxGeometry width="160" relative="1" as="geometry">
                        <mxPoint x="605" y="190" as="sourcePoint"/>
                        <mxPoint x="520" y="90" as="targetPoint"/>
                    </mxGeometry>
                </mxCell>
                <mxCell id="9X4l0IQlaEuJvsT15UHs-73" value="" style="endArrow=block;endSize=16;endFill=0;html=1;rounded=0;fontColor=#FF9999;exitX=0.5;exitY=0;exitDx=0;exitDy=0;edgeStyle=orthogonalEdgeStyle;" parent="1" source="9X4l0IQlaEuJvsT15UHs-27" edge="1">
                    <mxGeometry width="160" relative="1" as="geometry">
                        <mxPoint x="615" y="200" as="sourcePoint"/>
                        <mxPoint x="520" y="90" as="targetPoint"/>
                    </mxGeometry>
                </mxCell>
                <mxCell id="9X4l0IQlaEuJvsT15UHs-74" value="" style="endArrow=block;endSize=16;endFill=0;html=1;rounded=0;fontColor=#FF9999;exitX=0.5;exitY=0;exitDx=0;exitDy=0;edgeStyle=orthogonalEdgeStyle;" parent="1" source="9X4l0IQlaEuJvsT15UHs-46" edge="1">
                    <mxGeometry width="160" relative="1" as="geometry">
                        <mxPoint x="625" y="210" as="sourcePoint"/>
                        <mxPoint x="520" y="90" as="targetPoint"/>
                    </mxGeometry>
                </mxCell>
                <mxCell id="9X4l0IQlaEuJvsT15UHs-75" value="" style="endArrow=block;endSize=16;endFill=0;html=1;rounded=0;fontColor=#FF9999;exitX=0.5;exitY=0;exitDx=0;exitDy=0;entryX=0.5;entryY=1;entryDx=0;entryDy=0;edgeStyle=orthogonalEdgeStyle;" parent="1" source="9X4l0IQlaEuJvsT15UHs-53" target="L7OUzsxzNEVT8pOXIUQ5-13" edge="1">
                    <mxGeometry width="160" relative="1" as="geometry">
                        <mxPoint x="635" y="220" as="sourcePoint"/>
                        <mxPoint x="580" y="150" as="targetPoint"/>
                    </mxGeometry>
                </mxCell>
                <mxCell id="9X4l0IQlaEuJvsT15UHs-76" value="" style="endArrow=block;endSize=16;endFill=0;html=1;rounded=0;fontColor=#FF9999;exitX=0.5;exitY=0;exitDx=0;exitDy=0;edgeStyle=orthogonalEdgeStyle;" parent="1" source="9X4l0IQlaEuJvsT15UHs-60" edge="1">
                    <mxGeometry width="160" relative="1" as="geometry">
                        <mxPoint x="940" y="160" as="sourcePoint"/>
                        <mxPoint x="520" y="90" as="targetPoint"/>
                    </mxGeometry>
                </mxCell>
                <mxCell id="gGhPqQ-JlkbUOsqNvGfJ-32" value="Repeatability" style="rounded=1;fontSize=11;fillColor=#FF9999;strokeColor=none;fontColor=#FFFFFF;verticalAlign=middle;rotation=-15;arcSize=30;" parent="1" vertex="1">
                    <mxGeometry x="885" y="364" width="100" height="50" as="geometry"/>
                </mxCell>
            </root>
        </mxGraphModel>
    </diagram>
</mxfile>